<?xml version="1.0" encoding="UTF-8" standalone="no"?>
<svg
   viewBox="0 0 26.1 25.2"
   class="IconCategory__icon___2yUVaE4Hqv"
   version="1.1"
   id="svg6"
   sodipodi:docname="archery.svg"
   inkscape:version="1.1.1 (3bf5ae0d25, 2021-09-20)"
   width="29"
   height="28"
   xmlns:inkscape="http://www.inkscape.org/namespaces/inkscape"
   xmlns:sodipodi="http://sodipodi.sourceforge.net/DTD/sodipodi-0.dtd"
   xmlns="http://www.w3.org/2000/svg"
   xmlns:svg="http://www.w3.org/2000/svg">
  <defs
     id="defs10" />
  <sodipodi:namedview
     id="namedview8"
     pagecolor="#ffffff"
     bordercolor="#666666"
     borderopacity="1.0"
     inkscape:pageshadow="2"
     inkscape:pageopacity="0.0"
     inkscape:pagecheckerboard="0"
     showgrid="false"
     inkscape:zoom="42.367481"
     inkscape:cx="13.618936"
     inkscape:cy="11.695291"
     inkscape:window-width="2113"
     inkscape:window-height="1355"
     inkscape:window-x="1205"
     inkscape:window-y="0"
     inkscape:window-maximized="0"
     inkscape:current-layer="svg6"
     scale-x="0.8" />
  <path
     d="M 8.25,6.75 C 6.389,6.75 4.875,5.236 4.875,3.375 4.875,1.514 6.389,0 8.25,0 c 1.861,0 3.375,1.514 3.375,3.375 0,1.861 -1.514,3.375 -3.375,3.375 z m 0,-5.25 c -1.034,0 -1.875,0.841 -1.875,1.875 0,1.034 0.841,1.875 1.875,1.875 1.034,0 1.875,-0.841 1.875,-1.875 C 10.125,2.341 9.284,1.5 8.25,1.5 Z M 9.75,24 C 9.195,24 8.66,23.791 8.25,23.425 7.84,23.79 7.305,24 6.75,24 A 2.253,2.253 0 0 1 4.5,21.75 L 4.493,13.5 a 0.75,0.75 0 0 1 1.5,0 L 6,21.749 a 0.75,0.75 0 0 0 1.5,0 v -4.5 A 0.75000017,0.75000017 0 1 1 9,17.25 v 4.5 a 0.75,0.75 0 0 0 1.5,0 V 10.5 a 0.75,0.75 0 0 1 0.75,-0.75 h 6 a 0.75,0.75 0 0 0 0,-1.5 h -6 a 0.75,0.75 0 0 1 0,-1.5 h 6 c 1.241,0 2.25,1.009 2.25,2.25 0,1.241 -1.009,2.25 -2.25,2.25 H 12 v 10.5 C 12,22.99 10.991,24 9.75,24 Z"
     id="path2"
     style="fill:#733d95;fill-opacity:1.0;stroke:#fc7f9c;stroke-width:0;stroke-miterlimit:2;stroke-dasharray:none;stroke-opacity:1" />
  <path
     d="M 15.75,18 A 0.751,0.751 0 0 1 15.485,16.548 C 15.54,16.527 21,14.371 21,9 21,3.628 15.54,1.473 15.485,1.452 A 0.752,0.752 0 0 1 15.048,0.487 0.754,0.754 0 0 1 16.014,0.05 C 16.078,0.071 22.5,2.542 22.5,9 c 0,6.445 -6.422,8.928 -6.487,8.952 A 0.73,0.73 0 0 1 15.75,18 Z m -12,-6.75 C 2.509,11.25 1.5,10.24 1.5,9 1.5,7.76 2.509,6.75 3.75,6.75 h 3 C 7.991,6.75 9,7.759 9,9 9,10.241 7.991,11.25 6.75,11.25 Z m 0,-3 a 0.75,0.75 0 0 0 0,1.5 h 3 a 0.75,0.75 0 0 0 0,-1.5 z"
     id="path4"
     style="fill:#733d95;fill-opacity:1.0;stroke-width:0.1;stroke-miterlimit:2;stroke-dasharray:none" />
</svg>
