<?xml version="1.0" encoding="UTF-8" standalone="no"?>
<svg
   viewBox="0 0 24 24"
   class="section-icon"
   version="1.1"
   id="svg4"
   sodipodi:docname="edulogo.svg"
   inkscape:version="1.1.1 (3bf5ae0d25, 2021-09-20)"
   xmlns:inkscape="http://www.inkscape.org/namespaces/inkscape"
   xmlns:sodipodi="http://sodipodi.sourceforge.net/DTD/sodipodi-0.dtd"
   xmlns="http://www.w3.org/2000/svg"
   xmlns:svg="http://www.w3.org/2000/svg">
  <defs
     id="defs8" />
  <sodipodi:namedview
     id="namedview6"
     pagecolor="#ffffff"
     bordercolor="#666666"
     borderopacity="1.0"
     inkscape:pageshadow="2"
     inkscape:pageopacity="0.0"
     inkscape:pagecheckerboard="0"
     showgrid="false"
     inkscape:zoom="29.958333"
     inkscape:cx="12"
     inkscape:cy="12"
     inkscape:window-width="1200"
     inkscape:window-height="1355"
     inkscape:window-x="1205"
     inkscape:window-y="0"
     inkscape:window-maximized="0"
     inkscape:current-layer="svg4" />
  <path
     d="M23.2 8.3L12.3 3.6c-.2-.1-.4-.1-.6 0L.8 8.3c-.1 0-.2.1-.2.2l-.1.1c0 .1-.1.1-.1.2v7.1c0 .4.4.8.8.8s.8-.4.8-.8v-5.6l2.8 1.1V17c0 .3.2.6.5.7l6.5 2.8c.1 0 .2.1.3.1s.2 0 .3-.1l6.5-2.8c.3-.1.5-.4.5-.7v-5.7l3.9-1.5c.3-.1.5-.4.5-.7s-.3-.7-.6-.8zm-5.5 8.1L12 18.9l-5.7-2.5v-4.5l5.4 2.1c.1 0 .2.1.3.1s.2 0 .3-.1l5.4-2.1v4.5zm-5.7-4L3.2 9 12 5.2 20.8 9 12 12.4z"
     id="path2"
     style="fill:#fc7f9c;fill-opacity:1" />
</svg>
