<?xml version="1.0" encoding="UTF-8" standalone="no"?>
<svg
   viewBox="0 0 31 30"
   class="section-icon"
   version="1.1"
   id="svg6"
   sodipodi:docname="experince.svg"
   inkscape:version="1.1.1 (3bf5ae0d25, 2021-09-20)"
   width="31"
   height="30"
   xmlns:inkscape="http://www.inkscape.org/namespaces/inkscape"
   xmlns:sodipodi="http://sodipodi.sourceforge.net/DTD/sodipodi-0.dtd"
   xmlns="http://www.w3.org/2000/svg"
   xmlns:svg="http://www.w3.org/2000/svg">
  <defs
     id="defs10" />
  <sodipodi:namedview
     id="namedview8"
     pagecolor="#ffffff"
     bordercolor="#666666"
     borderopacity="1.0"
     inkscape:pageshadow="2"
     inkscape:pageopacity="0.0"
     inkscape:pagecheckerboard="0"
     showgrid="false"
     inkscape:zoom="29.958333"
     inkscape:cx="8.9958275"
     inkscape:cy="17.324061"
     inkscape:window-width="2706"
     inkscape:window-height="1358"
     inkscape:window-x="2401"
     inkscape:window-y="2"
     inkscape:window-maximized="0"
     inkscape:current-layer="svg6"
     width="25px" />
  <g
     id="g883"
     transform="matrix(1.2640705,0,0,1.2640705,0.23365786,-0.23143235)">
    <path
       d="M 2.25,23.25 A 2.252,2.252 0 0 1 0,21 V 7.5 A 2.252,2.252 0 0 1 2.25,5.25 H 3 V 4.5 a 0.75,0.75 0 0 1 1.5,0 V 5.25 H 6.959 L 7.946,2.288 A 2.247,2.247 0 0 1 10.08,0.75 h 3.838 c 0.97,0 1.827,0.618 2.135,1.538 L 17.04,5.25 H 19.5 V 4.5 a 0.75,0.75 0 0 1 1.5,0 v 0.75 h 0.75 A 2.252,2.252 0 0 1 24,7.5 V 21 a 2.252,2.252 0 0 1 -2.25,2.25 z m 0,-16.5 A 0.75,0.75 0 0 0 1.5,7.5 V 21 c 0,0.414 0.336,0.75 0.75,0.75 h 19.5 A 0.75,0.75 0 0 0 22.5,21 V 7.5 A 0.75,0.75 0 0 0 21.75,6.75 Z M 15.459,5.25 14.63,2.762 A 0.749,0.749 0 0 0 13.919,2.25 H 10.081 A 0.748,0.748 0 0 0 9.37,2.763 L 8.541,5.25 Z"
       id="path2"
       style="fill:#fc7f9c;fill-opacity:1" />
    <path
       d="m 5.25,12 a 0.75,0.75 0 0 1 0,-1.5 h 13.5 a 0.75,0.75 0 0 1 0,1.5 z m 0,6 a 0.75,0.75 0 0 1 0,-1.5 h 13.5 a 0.75,0.75 0 0 1 0,1.5 z"
       id="path4"
       style="fill:#fc7f9c;fill-opacity:1" />
  </g>
</svg>
