<?xml version="1.0" encoding="UTF-8" standalone="no"?>
<svg
   viewBox="0 0 24 24"
   class="IconCategory__icon___2yUVaE4Hqv"
   version="1.1"
   id="svg6"
   sodipodi:docname="me.svg"
   inkscape:version="1.1.1 (3bf5ae0d25, 2021-09-20)"
   xmlns:inkscape="http://www.inkscape.org/namespaces/inkscape"
   xmlns:sodipodi="http://sodipodi.sourceforge.net/DTD/sodipodi-0.dtd"
   xmlns="http://www.w3.org/2000/svg"
   xmlns:svg="http://www.w3.org/2000/svg">
  <defs
     id="defs10" />
  <sodipodi:namedview
     id="namedview8"
     pagecolor="#ffffff"
     bordercolor="#666666"
     borderopacity="1.0"
     inkscape:pageshadow="2"
     inkscape:pageopacity="0.0"
     inkscape:pagecheckerboard="0"
     showgrid="false"
     inkscape:zoom="29.958333"
     inkscape:cx="12"
     inkscape:cy="12"
     inkscape:window-width="1200"
     inkscape:window-height="1355"
     inkscape:window-x="1205"
     inkscape:window-y="0"
     inkscape:window-maximized="0"
     inkscape:current-layer="svg6" />
  <path
     d="M12 0a12 12 0 1012 12A12.013 12.013 0 0012 0zm0 22a10 10 0 1110-10 10.011 10.011 0 01-10 10z"
     id="path2"
     style="fill:#fc7f9c;fill-opacity:1" />
  <path
     d="M17.156 14.162a1 1 0 00-1.383.291 4.5 4.5 0 01-7.545 0 1 1 0 00-1.676 1.094 6.5 6.5 0 0010.9 0 1 1 0 00-.296-1.385zM8.5 11.5a1 1 0 001-1v-3a1 1 0 00-2 0v3a1 1 0 001 1zm7 0a1 1 0 001-1v-3a1 1 0 00-2 0v3a1 1 0 001 1z"
     id="path4"
     style="fill:#fc7f9c;fill-opacity:1" />
</svg>
