<?xml version="1.0" encoding="UTF-8" standalone="no"?>
<svg
   viewBox="0 0 24 24"
   class="section-icon"
   version="1.1"
   id="svg6"
   sodipodi:docname="skill.svg"
   inkscape:version="1.1.1 (3bf5ae0d25, 2021-09-20)"
   xmlns:inkscape="http://www.inkscape.org/namespaces/inkscape"
   xmlns:sodipodi="http://sodipodi.sourceforge.net/DTD/sodipodi-0.dtd"
   xmlns="http://www.w3.org/2000/svg"
   xmlns:svg="http://www.w3.org/2000/svg">
  <defs
     id="defs10" />
  <sodipodi:namedview
     id="namedview8"
     pagecolor="#ffffff"
     bordercolor="#666666"
     borderopacity="1.0"
     inkscape:pageshadow="2"
     inkscape:pageopacity="0.0"
     inkscape:pagecheckerboard="0"
     showgrid="false"
     inkscape:zoom="29.958333"
     inkscape:cx="11.98331"
     inkscape:cy="12"
     inkscape:window-width="2075"
     inkscape:window-height="1355"
     inkscape:window-x="1205"
     inkscape:window-y="0"
     inkscape:window-maximized="0"
     inkscape:current-layer="svg6" />
  <path
     d="M 3.8100852,23.198888 A 3.5444862,3.6112935 0 0 1 1.8756079,22.613116 3.5625122,3.6296593 0 0 1 0.83104704,17.59829 L 7.1078994,7.760028 V 1.4499305 H 6.3963457 A 0.71155371,0.72496525 0 0 1 6.3963457,0 h 9.9617523 a 0.71155371,0.72496525 0 0 1 0,1.4499305 H 15.646544 V 7.760028 l 6.276852,9.839228 c 0.375701,0.589639 0.574936,1.272073 0.574936,1.974806 a 3.5387937,3.6054938 0 0 1 -1.041715,2.563477 3.5368963,3.6035606 0 0 1 -2.516054,1.061349 z M 2.0245598,18.388985 a 2.1375073,2.1777956 0 0 0 1.7864741,3.360939 H 18.940563 c 0.570192,0 1.106229,-0.226189 1.509443,-0.637003 a 2.1289687,2.169096 0 0 0 0.279877,-2.722969 l -3.40597,-5.339611 H 5.4305302 Z M 16.398893,11.599444 14.338234,8.3699654 A 0.7115537,0.72496524 0 0 1 14.223436,7.9746177 V 7.2496524 h -2.134661 a 0.71155371,0.72496525 0 0 1 0,-1.4499305 h 2.134661 V 4.3497915 h -2.134661 a 0.71155371,0.72496525 0 0 1 0,-1.4499305 h 2.134661 V 1.4499305 H 8.5310068 V 7.9746177 A 0.7115537,0.72496524 0 0 1 8.4162095,8.3699654 L 6.35555,11.599444 Z"
     id="path2"
     style="stroke-width:0.08928217;stroke:#fc7f9c;stroke-opacity:1;fill:#fc7f9c;fill-opacity:1;stroke-miterlimit:4;stroke-dasharray:none" />
  <path
     d="M15.728 19.5a.75.75 0 01-.75-.75V18h-.75a.75.75 0 010-1.5h.75v-.75a.75.75 0 011.5 0v.75h.75a.75.75 0 010 1.5h-.75v.75a.75.75 0 01-.75.75zm-9.001 1.125a.748.748 0 01-.133-.012 1.126 1.126 0 01-.98-.982.717.717 0 01-.001-.262c.06-.513.47-.922.983-.983a.796.796 0 01.258 0c.514.059.924.469.985.983a.717.717 0 010 .262c-.06.512-.468.921-.98.982a.704.704 0 01-.132.012zm3-3a.748.748 0 01-.133-.012 1.126 1.126 0 01-.98-.982.717.717 0 01-.001-.262c.06-.513.47-.922.983-.983a.796.796 0 01.26 0c.568.066.995.542.995 1.114a.817.817 0 01-.013.139 1.128 1.128 0 01-.979.974.704.704 0 01-.132.012z"
     id="path4"
     style="stroke:#fc7f9c;stroke-opacity:1;fill:#fc7f9c;fill-opacity:1;stroke-width:0.09323163;stroke-miterlimit:4;stroke-dasharray:none" />
</svg>
