<?xml version="1.0" encoding="UTF-8" standalone="no"?>
<svg
   version="1.0"
   width="743pt"
   height="1268pt"
   viewBox="0 0 743.00002 1268"
   preserveAspectRatio="xMidYMid meet"
   id="svg10"
   sodipodi:docname="walking.svg"
   inkscape:version="1.1.1 (3bf5ae0d25, 2021-09-20)"
   xmlns:inkscape="http://www.inkscape.org/namespaces/inkscape"
   xmlns:sodipodi="http://sodipodi.sourceforge.net/DTD/sodipodi-0.dtd"
   xmlns="http://www.w3.org/2000/svg"
   xmlns:svg="http://www.w3.org/2000/svg">
  <defs
     id="defs14" />
  <sodipodi:namedview
     id="namedview12"
     pagecolor="#ffffff"
     bordercolor="#666666"
     borderopacity="1.0"
     inkscape:pageshadow="2"
     inkscape:pageopacity="0.0"
     inkscape:pagecheckerboard="0"
     inkscape:document-units="pt"
     showgrid="false"
     width="756pt"
     scale-x="1"
     inkscape:zoom="0.42128906"
     inkscape:cx="504.40427"
     inkscape:cy="853.33334"
     inkscape:window-width="1200"
     inkscape:window-height="1355"
     inkscape:window-x="1205"
     inkscape:window-y="0"
     inkscape:window-maximized="0"
     inkscape:current-layer="svg10" />
  <metadata
     id="metadata2">
Created by potrace 1.15, written by Peter Selinger 2001-2017
</metadata>
  <g
     transform="matrix(0.08540999,0,0,-0.08378268,0.01354231,1072.4735)"
     fill="#000000"
     stroke="none"
     id="g8"
     style="fill:#733d95;fill-opacity:1;stroke-width:1;stroke-miterlimit:4;stroke-dasharray:none">
    <path
       d="m 4084,12786 c -416,-68 -756,-378 -860,-785 -125,-485 105,-988 553,-1210 165,-82 277,-106 478,-105 139,1 173,4 257,27 363,97 649,374 752,728 75,260 51,520 -69,764 -139,281 -387,483 -690,561 -123,31 -301,40 -421,20 z"
       id="path4"
       style="fill:#733d95;fill-opacity:1;stroke-width:1;stroke-miterlimit:4;stroke-dasharray:none" />
    <path
       d="m 3765,10455 c -149,-24 -309,-86 -443,-172 -74,-46 -2133,-1715 -2202,-1783 -60,-59 -99,-121 -124,-197 -22,-70 -474,-2108 -482,-2173 -8,-72 15,-180 56,-260 87,-172 293,-278 483,-249 91,14 195,68 266,140 91,91 122,163 177,409 55,250 351,1598 356,1623 2,13 738,620 745,614 1,-1 -254,-1134 -567,-2518 L 1462,3373 777,2223 C 400,1590 80,1046 67,1014 -24,796 -21,602 76,401 114,323 136,293 208,220 307,121 394,68 512,33 c 250,-72 497,-13 689,164 33,31 80,84 103,117 81,114 1517,2546 1576,2669 l 59,122 178,823 c 97,452 180,821 184,820 12,-6 1529,-1669 1529,-1677 0,-16 459,-2425 476,-2496 58,-253 250,-466 488,-541 330,-104 696,50 852,358 71,140 93,324 60,499 -8,41 -45,233 -81,425 -36,192 -115,608 -175,924 -60,316 -139,733 -175,925 -65,345 -95,462 -134,526 -11,18 -442,532 -958,1142 -516,609 -937,1114 -936,1120 8,44 475,2093 478,2096 2,2 96,-181 208,-406 158,-315 215,-420 251,-460 57,-63 1612,-1139 1711,-1184 189,-85 399,-46 539,100 173,182 179,463 13,647 -31,35 -269,204 -785,560 l -740,509 -145,290 c -643,1278 -931,1841 -966,1888 -257,349 -656,525 -1046,462 z"
       id="path6"
       style="fill:#733d95;fill-opacity:1;stroke-width:1;stroke-miterlimit:4;stroke-dasharray:none" />
  </g>
</svg>
